<svg width="18" height="18" viewBox="0 0 18 18" fill="none" xmlns="http://www.w3.org/2000/svg">
<path fill-rule="evenodd" clip-rule="evenodd" d="M5.28937 0.054C6.24937 0.0105 6.55575 0 9 0C11.4443 0 11.7506 0.0105 12.7106 0.054C14.1739 0.12075 15.4583 0.47925 16.4895 1.5105C17.5211 2.54212 17.8792 3.82687 17.946 5.28937C17.9895 6.24937 18 6.55575 18 9C18 11.4443 17.9895 11.7506 17.946 12.7106C17.8792 14.1739 17.5208 15.4583 16.4895 16.4895C15.4579 17.5211 14.1727 17.8792 12.7106 17.946C11.7506 17.9895 11.4443 18 9 18C6.55575 18 6.24937 17.9895 5.28937 17.946C3.82612 17.8792 2.54175 17.5208 1.5105 16.4895C0.478875 15.4579 0.12075 14.1731 0.054 12.7106C0.0105 11.7506 0 11.4443 0 9C0 6.55575 0.0105 6.24937 0.054 5.28937C0.12075 3.82612 0.47925 2.54175 1.5105 1.5105C2.54212 0.478875 3.82687 0.12075 5.28937 0.054ZM12.6368 1.674C11.6876 1.6305 11.403 1.6215 9 1.6215C6.597 1.6215 6.31238 1.63087 5.36325 1.674C4.33913 1.72088 3.3885 1.926 2.65725 2.65725C1.926 3.3885 1.72088 4.33913 1.674 5.36325C1.6305 6.31238 1.6215 6.597 1.6215 9C1.6215 11.403 1.63087 11.6876 1.674 12.6368C1.72088 13.6609 1.926 14.6115 2.65725 15.3427C3.3885 16.074 4.33913 16.2791 5.36325 16.326C6.312 16.3695 6.59663 16.3785 9 16.3785C11.4034 16.3785 11.688 16.3691 12.6368 16.326C13.6609 16.2791 14.6115 16.074 15.3427 15.3427C16.074 14.6115 16.2791 13.6609 16.326 12.6368C16.3695 11.6876 16.3785 11.403 16.3785 9C16.3785 6.597 16.3691 6.31238 16.326 5.36325C16.2791 4.33913 16.074 3.3885 15.3427 2.65725C14.6115 1.926 13.6609 1.72088 12.6368 1.674Z" fill="#161C2D"/>
<path fill-rule="evenodd" clip-rule="evenodd" d="M4.90906 9.40918C4.90906 6.92403 6.92354 4.90918 9.40906 4.90918C11.8946 4.90918 13.9091 6.92366 13.9091 9.40918C13.9091 11.8947 11.8946 13.9092 9.40906 13.9092C6.92354 13.9092 4.90906 11.8943 4.90906 9.40918ZM6.48793 9.40918C6.48793 11.0224 7.79586 12.3303 9.40906 12.3303C11.0223 12.3303 12.3302 11.0224 12.3302 9.40918C12.3302 7.79599 11.0223 6.48805 9.40906 6.48805C7.79586 6.48805 6.48793 7.79599 6.48793 9.40918Z" fill="#161C2D"/>
<circle cx="13.5" cy="4.49998" r="1.22727" fill="#161C2D"/>
</svg>
